<svg width="21" height="21" viewBox="0 0 21 21" fill="none" xmlns="http://www.w3.org/2000/svg">
<path d="M7.7063 7.75407C8.2363 8.22907 8.9383 8.51807 9.7063 8.51807H11.7063C12.4444 8.51909 13.1568 8.24695 13.7063 7.75407H7.7063ZM7.7063 7.75407C7.15684 8.24695 6.44443 8.51909 5.7063 8.51807L7.7063 7.75407ZM6.7563 2.51807V2.46807H6.7063H3.7063C3.42782 2.46807 3.16075 2.57869 2.96384 2.7756C2.76693 2.97252 2.6563 3.23959 2.6563 3.51807V5.51807C2.6563 5.79654 2.76693 6.06362 2.96384 6.26053C3.16075 6.45744 3.42782 6.56807 3.7063 6.56807H5.7063C5.98478 6.56807 6.25185 6.45744 6.44876 6.26053C6.64568 6.06362 6.7563 5.79654 6.7563 5.51807V2.51807ZM3.7163 8.46807H3.6663V8.51807V18.4831V18.5331H3.7163H5.7063H5.7563V18.4831V13.5181C5.7563 13.0009 5.96175 12.5049 6.32744 12.1392C6.69314 11.7735 7.18913 11.5681 7.7063 11.5681H9.7063C10.2235 11.5681 10.7195 11.7735 11.0852 12.1392C11.4509 12.5049 11.6563 13.0009 11.6563 13.5181V18.4831V18.5331H11.7063H17.7193H17.7693V18.4831V8.51807V8.46807H17.7193H15.7063C14.9511 8.46807 14.2608 8.18391 13.7397 7.71683L13.7063 7.68691L13.6729 7.71685C13.1326 8.20148 12.4322 8.46907 11.7064 8.46807H11.7063H9.7063C8.95106 8.46807 8.26084 8.18391 7.73967 7.71683L7.70629 7.68691L7.67291 7.71685C7.13264 8.20148 6.43216 8.46907 5.70637 8.46807H5.7063H3.7163ZM1.71447 7.69519C1.41803 7.42442 1.18 7.09573 1.0152 6.72925C0.843973 6.34848 0.755719 5.93564 0.756302 5.51814V5.51807V3.51807C0.756302 2.73568 1.0671 1.98533 1.62034 1.4321C2.17357 0.878869 2.92391 0.568066 3.7063 0.568066H17.7063C18.4887 0.568066 19.239 0.878869 19.7923 1.4321C20.3455 1.98533 20.6563 2.73568 20.6563 3.51807V5.51807C20.6563 6.3854 20.2827 7.1661 19.6858 7.70598L19.6693 7.72087V7.74307V18.4831C19.6693 19.0002 19.4639 19.4962 19.0982 19.8619C18.7325 20.2276 18.2365 20.4331 17.7193 20.4331H10.0793V20.4322L10.07 20.4339C9.9501 20.4566 9.82833 20.468 9.70629 20.4681H7.7063C7.58427 20.468 7.46251 20.4566 7.34259 20.4339L7.34276 20.4331H7.3333H3.7173C3.20013 20.4331 2.70414 20.2276 2.33844 19.8619C1.97275 19.4962 1.7673 19.0002 1.7673 18.4831V7.76307V7.64237L1.71447 7.69519ZM9.7563 13.5181V13.4681H9.7063H7.7063H7.6563V13.5181V18.4831V18.5331H7.7063H9.7063V18.4841H9.7563V18.4831V18.4331V13.5181ZM12.7563 2.51807V2.46807H12.7063H8.7063H8.6563V2.51807V5.51807C8.6563 5.79654 8.76693 6.06362 8.96384 6.26053C9.16075 6.45744 9.42782 6.56807 9.7063 6.56807H11.7063C11.9848 6.56807 12.2519 6.45744 12.4488 6.26053C12.6457 6.06362 12.7563 5.79654 12.7563 5.51807V2.51807ZM14.7063 2.46807H14.6563V2.51807V5.51807C14.6563 5.79654 14.7669 6.06362 14.9638 6.26053C15.1608 6.45744 15.4278 6.56807 15.7063 6.56807H17.7063C17.9848 6.56807 18.2519 6.45744 18.4488 6.26053C18.6457 6.06361 18.7563 5.79654 18.7563 5.51807V3.51807C18.7563 3.23959 18.6457 2.97252 18.4488 2.7756C18.2519 2.57869 17.9848 2.46807 17.7063 2.46807H14.7063ZM14.7063 11.5681H15.7063C15.9583 11.5681 16.1999 11.6682 16.3781 11.8463C16.5562 12.0245 16.6563 12.2661 16.6563 12.5181V15.5181C16.6563 15.77 16.5562 16.0117 16.3781 16.1898C16.1999 16.368 15.9583 16.4681 15.7063 16.4681H14.7063C14.4543 16.4681 14.2127 16.368 14.0346 16.1898C13.8564 16.0117 13.7563 15.77 13.7563 15.5181V12.5181C13.7563 12.2661 13.8564 12.0245 14.0346 11.8463C14.2127 11.6682 14.4543 11.5681 14.7063 11.5681Z" fill="#53B175" stroke="white" stroke-width="0.1"/>
</svg>
