<svg width="17" height="21" viewBox="0 0 17 21" fill="none" xmlns="http://www.w3.org/2000/svg">
<path d="M4.61612 10.5881C4.75695 10.5356 4.90839 10.5083 5.0615 10.5078C5.21461 10.5074 5.36628 10.5337 5.50754 10.5853C5.6488 10.6368 5.77678 10.7126 5.88392 10.8081C5.99106 10.9036 6.07519 11.0168 6.13132 11.1412C6.18746 11.2656 6.21447 11.3985 6.21075 11.5321C6.20704 11.6657 6.17267 11.7974 6.10969 11.9192C6.0467 12.041 5.95638 12.1506 5.84406 12.2415C5.73173 12.3323 5.59969 12.4025 5.45573 12.4481C4.69005 12.7114 4.03289 13.1699 3.56976 13.7638C3.10663 14.3577 2.85897 15.0596 2.85901 15.7781V17.5181C2.85901 17.7833 2.97969 18.0376 3.1945 18.2252C3.40931 18.4127 3.70066 18.5181 4.00445 18.5181H13.168C13.4718 18.5181 13.7632 18.4127 13.978 18.2252C14.1928 18.0376 14.3135 17.7833 14.3135 17.5181V15.8711C14.3136 15.1295 14.0556 14.4055 13.5736 13.7949C13.0917 13.1843 12.4085 12.716 11.6148 12.4521C11.4699 12.4082 11.3367 12.3394 11.2228 12.2497C11.109 12.16 11.017 12.0513 10.9522 11.9299C10.8874 11.8086 10.8511 11.6772 10.8456 11.5434C10.8401 11.4096 10.8654 11.2763 10.92 11.1512C10.9746 11.0261 11.0574 10.9119 11.1635 10.8152C11.2696 10.7186 11.3969 10.6416 11.5378 10.5887C11.6786 10.5358 11.8302 10.5081 11.9835 10.5074C12.1368 10.5066 12.2888 10.5326 12.4303 10.5841C13.6578 10.9922 14.7142 11.7164 15.4596 12.6606C16.2051 13.6047 16.6043 14.7244 16.6044 15.8711V17.5181C16.6044 18.3137 16.2423 19.0768 15.5979 19.6394C14.9534 20.202 14.0794 20.5181 13.168 20.5181H4.00445C3.09308 20.5181 2.21903 20.202 1.57459 19.6394C0.930157 19.0768 0.568115 18.3137 0.568115 17.5181V15.7781C0.568273 14.6582 0.954447 13.5643 1.6764 12.6387C2.39836 11.7131 3.42268 10.9985 4.61612 10.5881ZM8.58623 0.518066C9.8014 0.518066 10.9668 0.939494 11.826 1.68964C12.6853 2.43978 13.168 3.4572 13.168 4.51807V6.51807C13.168 7.57893 12.6853 8.59635 11.826 9.34649C10.9668 10.0966 9.8014 10.5181 8.58623 10.5181C7.37107 10.5181 6.20568 10.0966 5.34642 9.34649C4.48717 8.59635 4.00445 7.57893 4.00445 6.51807V4.51807C4.00445 3.4572 4.48717 2.43978 5.34642 1.68964C6.20568 0.939494 7.37107 0.518066 8.58623 0.518066ZM8.58623 2.51807C7.97865 2.51807 7.39595 2.72878 6.96633 3.10385C6.5367 3.47893 6.29534 3.98763 6.29534 4.51807V6.51807C6.29534 7.0485 6.5367 7.55721 6.96633 7.93228C7.39595 8.30735 7.97865 8.51807 8.58623 8.51807C9.19382 8.51807 9.77651 8.30735 10.2061 7.93228C10.6358 7.55721 10.8771 7.0485 10.8771 6.51807V4.51807C10.8771 3.98763 10.6358 3.47893 10.2061 3.10385C9.77651 2.72878 9.19382 2.51807 8.58623 2.51807Z" fill="#181725"/>
</svg>
